<?xml version="1.0" standalone="no"?><!DOCTYPE svg PUBLIC "-//W3C//DTD SVG 1.1//EN" "http://www.w3.org/Graphics/SVG/1.1/DTD/svg11.dtd"><svg t="1733928146371" class="icon" viewBox="0 0 1024 1024" version="1.1" xmlns="http://www.w3.org/2000/svg" p-id="1773" xmlns:xlink="http://www.w3.org/1999/xlink" width="200" height="200"><path d="M0 0h1024v1024H0z" fill="#FFBC29" p-id="1774"></path><path d="M680 213.333c66.3 0 120 53.7 120 120 0 8.1-0.8 15.9-2.3 23.6C858.8 407.933 896 475.333 896 549.333c0 159.1-171.9 288-384 288S128 708.433 128 549.333c0-74 37.2-141.4 98.3-192.4C224.8 349.333 224 341.433 224 333.333 224 267.033 277.7 213.333 344 213.333c41.3 0 77.7 20.9 99.3 52.6 22.3-3 45.3-4.6 68.7-4.6s46.4 1.6 68.7 4.6C602.3 234.233 638.7 213.333 680 213.333z" fill="#46FE8A" p-id="1775"></path><path d="M512 858.633c-107.2 0-208.1-31.5-284.3-88.6-37.6-28.2-67.3-61.2-88.1-98.1-21.8-38.7-32.9-80-32.9-122.6 0-74.1 34.3-145 96.8-200.9-0.5-5-0.8-10.1-0.8-15.1 0-77.9 63.4-141.3 141.3-141.3 42.4 0 82.2 18.9 108.9 51.3 39-4.3 79.2-4.3 118.2 0C597.8 210.933 637.6 192.033 680 192.033c77.9 0 141.3 63.4 141.3 141.3 0 5-0.3 10.1-0.8 15.1C883 404.333 917.3 475.233 917.3 549.333c0 42.6-11.1 83.8-32.9 122.6-20.8 36.9-50.4 69.9-88.1 98.1-76.2 57.2-177.1 88.6-284.3 88.6z m-168-624c-54.4 0-98.7 44.3-98.7 98.7 0 6.5 0.6 13.1 1.9 19.4l2.5 12.4-9.7 8.1C181.5 422.033 149.3 484.533 149.3 549.333 149.3 696.333 312 816.033 512 816.033S874.7 696.433 874.7 549.333c0-64.8-32.2-127.3-90.6-176.1l-9.7-8.1 2.5-12.4c1.3-6.3 1.9-12.9 1.9-19.4 0-54.4-44.3-98.7-98.7-98.7-32.7 0-63.2 16.2-81.7 43.3L591 288.833l-13.1-1.8c-43.1-5.8-88.6-5.8-131.7 0l-13.1 1.8-7.4-10.9c-18.5-27.1-49-43.3-81.7-43.3z" fill="#333333" p-id="1776"></path><path d="M336.1 330.633m-48 0a48 48 0 1 0 96 0 48 48 0 1 0-96 0Z" fill="#333333" p-id="1777"></path><path d="M348.3 330.133m-24 0a24 24 0 1 0 48 0 24 24 0 1 0-48 0Z" fill="#FFFFFF" p-id="1778"></path><path d="M681 331.633m-48 0a48 48 0 1 0 96 0 48 48 0 1 0-96 0Z" fill="#333333" p-id="1779"></path><path d="M693.2 331.133m-24 0a24 24 0 1 0 48 0 24 24 0 1 0-48 0Z" fill="#FFFFFF" p-id="1780"></path><path d="M512 762.633c-68.4 0-133.1-18.8-181.9-53.1-24.5-17.1-43.8-37.3-57.5-59.8-14.6-24.1-21.9-49.8-21.9-76.4 0-11.8 9.6-21.3 21.3-21.3s21.3 9.6 21.3 21.3c0 37.7 21.7 73.7 61.2 101.3 41.8 29.2 97.7 45.3 157.5 45.3s115.7-16.1 157.5-45.3c39.5-27.6 61.2-63.6 61.2-101.3 0-11.8 9.6-21.3 21.3-21.3s21.3 9.6 21.3 21.3c0 26.6-7.4 52.3-21.9 76.4-13.6 22.6-33 42.7-57.5 59.8-48.8 34.3-113.5 53.1-181.9 53.1z" fill="#333333" p-id="1781"></path><path d="M776 477.333m-24 0a24 24 0 1 0 48 0 24 24 0 1 0-48 0Z" fill="#FFCB00" p-id="1782"></path><path d="M248 477.333m-24 0a24 24 0 1 0 48 0 24 24 0 1 0-48 0Z" fill="#FFCC00" p-id="1783"></path><path d="M184.142 146.321c-0.406-6.302 3.603-14.293 6.666-17.313 4.84-4.599 11.756-6.664 18.032-4.699 5.693 1.701 10.285 5.647 12.74 10.905 4.136 8.78 5.016 18.656 2.507 29.811-2.162 9.856-5.947 17.845-11.222 24.012-4.655 5.402-12.106 7.74-18.962 5.958" fill="#FF857A" p-id="1784"></path><path d="M198.668 204.127a28.543 28.543 0 0 1-6.984-0.93c-4.571-1.263-7.29-5.938-6.028-10.51 1.263-4.57 5.938-7.29 10.51-6.028 3.674 1.046 7.734-0.237 10.261-3.208 4.344-5.131 7.513-11.909 9.417-20.286 2.12-9.274 1.523-17.275-1.84-24.315-1.454-3.075-4.2-5.38-7.517-6.383-3.182-0.96-6.886 0.141-9.729 2.712-1.51 1.443-4.374 7.055-4.168 10.542 0.259 4.694-3.288 8.746-7.982 9.005-4.694 0.259-8.746-3.288-9.005-7.982-0.514-8.717 4.46-19.22 9.344-23.953 7.148-6.897 17.28-9.478 26.425-6.73a29.298 29.298 0 0 1 18.05 15.382c4.955 10.606 5.985 22.54 3.042 35.487-2.509 11.155-6.911 20.356-13.072 27.648-5.276 6.167-12.898 9.49-20.724 9.549z" fill="#333333" p-id="1785"></path><path d="M184.053 146.367c-4.863-4.257-14.217-5.214-18.639-4.42-6.565 1.212-12.3 5.594-14.4 11.826-1.88 5.56-1.388 11.594 1.334 16.716 4.671 8.507 12.19 15.114 22.69 19.64 9.198 3.956 17.887 5.59 25.976 4.946 7.107-0.59 13.377-5.244 15.966-11.838" fill="#FF857A" p-id="1786"></path><path d="M197.681 203.732c-8.318-0.026-17.054-1.972-25.983-5.84-12.205-5.23-21.253-13.077-26.832-23.365-3.856-7.127-4.547-15.753-1.924-23.6 3.152-9.013 11.152-15.558 20.977-17.422 6.298-1.076 18.472 0.129 25.674 6.335 3.602 3.103 3.955 8.423 0.852 12.024-3.103 3.601-8.423 3.955-12.024 0.852-2.251-1.996-8.788-2.93-11.468-2.463-3.707 0.655-6.818 3.138-7.913 6.277-1.138 3.273-0.887 6.85 0.746 9.833 3.72 6.86 9.84 12.045 18.59 15.78 7.897 3.384 15.288 4.893 21.947 4.306 3.888-0.298 7.313-2.828 8.627-6.416 1.666-4.44 6.614-6.625 11.054-4.959 4.44 1.666 6.624 6.614 4.959 11.054-3.729 9.643-12.8 16.51-23.259 17.35-1.25 0.188-2.681 0.244-4.023 0.254z" fill="#333333" p-id="1787"></path><path d="M215 855.3c4.8 2.2 8.6 5.7 11 10.1 2.5 4.5 3.6 9.8 3 15.1-0.3 2.4-0.9 4.7-1.8 6.9 2.3 0.3 4.6 0.9 6.8 1.9 4.7 2.1 8.5 5.7 11 10.1 2.5 4.4 3.6 9.6 3 15-0.6 5.5-2.9 10.4-6.3 14.2-3.5 3.9-8.1 6.7-13.2 7.9-2.2 0.5-4.5 0.7-6.8 0.6 0.3 2.2 0.4 4.5 0.2 6.8-0.6 5.3-2.9 10.3-6.4 14.3-3.4 3.8-7.9 6.6-13.2 7.8-5.2 1.2-10.4 0.6-14.9-1.4-4.6-2.1-8.5-5.6-11.1-10.1-1.2-2.1-2.1-4.4-2.6-6.8-2.1 1.2-4.4 2.1-6.8 2.6-5.1 1.1-10.3 0.6-14.9-1.5-4.5-2-8.4-5.4-11-10.1-2.6-4.7-3.6-10-3-15 0.6-5.2 2.8-10.3 6.3-14.3 1.5-1.7 3.3-3.2 5.2-4.5-1.6-1.6-3-3.4-4.1-5.4-2.6-4.6-3.6-9.9-3-15.1 0.6-5.1 2.7-10.1 6.3-14.2 3.6-4.1 8.3-6.7 13.2-7.8 5-1.1 10.2-0.7 14.9 1.4 2.2 1 4.2 2.3 5.9 3.8 1-2.1 2.3-4.1 3.9-5.9 3.5-4 8.2-6.7 13.2-7.8 5.2-1.1 10.4-0.7 15.2 1.4z" fill="#46FEB8" p-id="1788"></path><path d="M197.1 975.1c-4.5 0-8.9-0.9-13-2.8-6.3-2.8-11.6-7.7-15-13.7-6.8 1.5-13.9 0.8-20.2-2-6.3-2.8-11.5-7.6-15-13.7-3.4-6.1-4.8-13.1-4.1-20.2 0.8-7.1 3.7-13.7 8.4-19-3.4-6.1-4.8-13.1-4-20.2 0.8-7.1 3.7-13.6 8.4-18.9 4.7-5.3 10.8-9 17.7-10.5 6.8-1.5 14-0.8 20.3 2 4.7-5.2 11-9 17.8-10.5 6.8-1.5 13.8-0.8 20.2 2 6.4 2.8 11.5 7.6 15 13.7 3.4 6.1 4.9 13.2 4.1 20.2 6.3 2.8 11.6 7.7 15 13.7 3.4 6.1 4.8 13.1 4 20.2-0.8 7.1-3.7 13.6-8.4 18.9-4.7 5.4-10.9 9-17.7 10.5-0.8 7.1-3.7 13.6-8.5 19-4.7 5.3-10.8 8.9-17.7 10.5-2.5 0.5-4.9 0.8-7.3 0.8z m-17.3-40.8l2.4 11.6c0.3 1.5 0.9 3 1.6 4.4 1.6 2.9 4.1 5.2 7.1 6.5 3 1.3 6.3 1.6 9.5 0.9 3.3-0.8 6.3-2.5 8.7-5.2 2.4-2.7 3.9-6.1 4.3-9.6 0.2-1.5 0.1-3-0.1-4.6l-1.6-10.4 10.5 0.6c1.5 0.1 3 0 4.4-0.4 3.3-0.7 6.4-2.6 8.7-5.2 2.4-2.7 3.8-6 4.2-9.5 0.4-3.5-0.3-6.9-2-9.9-1.6-2.9-4.1-5.2-7.1-6.5-1.4-0.6-2.8-1-4.3-1.2l-11.2-1.3 4.3-10.4c0.6-1.5 1-3 1.2-4.6 0.4-3.4-0.3-7-2-10-1.6-2.9-4.1-5.1-7.1-6.4-3-1.3-6.3-1.7-9.5-0.9-3.3 0.7-6.4 2.6-8.7 5.2-1 1.2-1.9 2.5-2.6 3.9l-4.8 10.2-8.5-7.4c-1.1-1-2.4-1.8-3.8-2.4-2.9-1.3-6.3-1.6-9.6-0.9-3.3 0.7-6.3 2.5-8.7 5.2-2.4 2.7-3.9 6-4.2 9.5-0.4 3.5 0.3 7 2 10 0.7 1.3 1.6 2.5 2.7 3.5l7.5 7.4-8.8 5.8c-1.3 0.8-2.4 1.8-3.5 3-2.3 2.6-3.8 6-4.2 9.6-0.4 3.5 0.3 6.9 2 9.9 1.6 2.9 4.1 5.1 7 6.5 3 1.3 6.4 1.7 9.6 0.9 1.5-0.3 3-0.9 4.3-1.7l10.3-6.1z" fill="#333333" p-id="1789"></path><path d="M886.8 176.8c-6.3 4.5-15 3.1-19.5-3.2-1.8-2.5-2.7-5.5-2.6-8.6-6.2-4.6-7.6-13.3-3-19.5 1.8-2.5 4.4-4.3 7.4-5.2 2.4-7.3 10.3-11.3 17.7-8.9 2.9 1 5.4 2.9 7.2 5.4 7.7 0 14 6.3 13.9 14 0 3.1-1 6.1-2.9 8.5 2.4 7.4-1.7 15.2-9.1 17.6-3 0.9-6.2 0.9-9.1-0.1z" fill="#95EF8F" p-id="1790"></path><path d="M878.7 185.8c-6.3 0-12.6-2.9-16.6-8.5-2-2.7-3.2-5.9-3.7-9.3-3-3-5-6.9-5.6-11.2-0.8-5.4 0.5-10.8 3.7-15.2 2-2.7 4.7-4.9 7.7-6.4 4.5-8.7 14.9-13.2 24.5-10 3.2 1.1 6.1 2.9 8.4 5.3 4.2 0.7 8.1 2.7 11.2 5.8 3.8 3.9 5.9 9 5.9 14.4 0 3.4-0.9 6.7-2.5 9.7 0.7 4.2 0 8.5-2 12.4-2.5 4.8-6.7 8.4-11.9 10.1-3.2 1-6.7 1.2-10 0.6-2.9 1.6-6 2.3-9.1 2.3z m3.6-48.7c-3.2 0-6.2 2-7.2 5.2l-1.1 3.2-3.2 0.9c-1.6 0.5-3 1.5-4 2.8-1.2 1.6-1.7 3.6-1.4 5.6 0.3 2 1.4 3.8 3 5l2.7 2-0.1 3.4c-0.1 1.7 0.5 3.3 1.4 4.7 2.4 3.4 7.2 4.2 10.6 1.7l2.7-2 3.2 1.1c1.6 0.6 3.3 0.6 4.9 0.1 1.9-0.6 3.5-1.9 4.4-3.7 0.9-1.8 1.1-3.9 0.5-5.8l-1-3.2 2.1-2.7c1-1.3 1.6-2.9 1.6-4.6 0-2-0.8-3.9-2.2-5.4-1.4-1.4-3.3-2.2-5.4-2.2h-3.4l-1.9-2.8c-0.9-1.4-2.3-2.4-3.9-2.9-0.7-0.3-1.5-0.4-2.3-0.4z" fill="#333333" p-id="1791"></path><path d="M907.724307 816.713644c3.769975-0.487123 5.795155 0.816198 6.879241 2.185416 0.866149 1.140082 1.414867 2.451153 1.281775 4.192499-0.022398 0.894147-0.409175 2.047578-1.066434 3.283705-0.187789 0.353179-0.422524 0.794653-0.745555 1.18918 1.589306 0.845049 2.913727 1.549256 3.926317 2.200916 1.318822 0.927744 2.284465 1.667699 2.891328 2.443403 1.478613 1.692248 1.751247 3.309552 1.629356 4.603825-0.221386 1.694399-0.97814 3.330652-3.241505 4.39234-0.858399 0.33638-2.075576 0.708509-3.734227 0.845901-2.240966 0.167541-5.770606-0.010346-10.318435-0.616358l-20.307795-10.797846c-2.775036-3.514139-4.672725-6.33527-5.786959-8.286803-0.68396-1.269724-1.149983-2.310312-1.309773-3.074816-0.201138-0.899746-0.272635-1.617303-0.167541-2.240966 0.099494-0.400126 0.198988-0.800252 0.345428-1.288674 0.140841-0.264884 0.234736-0.441474 0.463872-0.65941 1.667699-2.284465 3.196708-2.604046 5.69136-2.183673 0.800252 0.198988 1.912336 0.450522 3.19541 1.019487 1.194779 0.522018 2.654442 1.184878 4.332043 2.076874 0.193388-0.576716 0.475071-1.106484 0.709807-1.547958 0.610313-1.147832 1.256374-1.936885 1.761593-2.461054 1.468712-1.484212 2.950773-1.715499 4.245046-1.593607s3.383199 0.666309 5.299837 4.516828c0.383328 0.770104 0.719708 1.628503 1.097436 2.622143 1.087535-0.554317 2.075576-0.708509 2.928375-0.821352z" fill="#6EC363" p-id="1792"></path><path d="M913.826508 846.347124c-2.458903-0.061595-5.54147-0.228284-9.195152-0.811897l-0.758905-0.063746L882.063645 833.875533l-0.518569-0.728756c-2.816384-3.649381-4.978956-6.611353-6.175886-8.83337-0.901897-1.49886-1.403668-2.898226-1.775797-4.115404-0.325181-1.305472-0.426826-2.605344-0.263586-3.764375 0.063746-0.758905 0.262734-1.559157 0.638311-2.265515l0.375577-0.706359c0.187789-0.353179 0.463872-0.659411 0.651661-1.012589 3.288452-4.480635 7.223817-4.42679 9.983353-3.865575C886.13774 808.74683 887.467761 809.2275 889.062666 809.849012c0.264884 0.140841 0.66501 0.240335 0.929895 0.381177 0.416925-0.571116 0.875197-1.00699 1.245175-1.489812 2.109173-2.049729 4.772664-3.011923 7.584746-2.762539 3.570987 0.31313 6.467916 2.532996 8.561143 6.47741 5.69911-0.707211 8.860923 1.653497 10.59882 3.710123 1.737897 2.056626 2.435207 4.579276 2.23277 7.303064-0.063746 0.758905-0.215786 1.470862-0.414774 2.271115 0.264884 0.140841 0.529769 0.281683 0.659411 0.463872 1.495411 1.021638 2.767286 2.037677 3.768677 3.136411 2.044129 2.33271 2.918029 4.949253 2.668645 7.761336-0.31313 3.570987-2.350807 6.338273-5.790001 7.907331-1.493261 0.67836-3.157511 1.03929-5.174941 1.21243-0.717557 0.071496-1.388167 0.054697-2.105724 0.126194z m-7.329318-9.220147c4.771366 0.611611 7.365511 0.631859 8.665384 0.530214 1.299872-0.101645 1.976082-0.308383 2.246566-0.391078 0.770104-0.383328 0.728756-0.518569 0.82825-0.918695 0.0056-0.223537 0.058146-0.535368-0.637013-1.358019-0.17099-0.317431-0.783454-0.869598-1.972633-1.615153-0.924295-0.604713-2.072127-1.215027-3.484843-1.966181l-4.285096-2.165168 2.694937-4.003413c0.140841-0.264884 0.416925-0.571116 0.510819-0.747706 0.422524-0.794653 0.527618-1.418316 0.533218-1.641852 0.058146-0.535368-0.112844-0.852799-0.283834-1.17023-0.217937-0.229136-0.736507-0.957893-3.071367-0.613762-0.629262 0.118443-1.393767 0.278234-2.293513 0.479373l-3.739826 1.069438-1.339922-3.657132c-0.33638-0.858399-0.631413-1.581555-0.973394-2.216417-0.383328-0.770104-1.155582-2.086775-1.914486-2.150521-0.223537-0.0056-0.447073-0.011199-0.905346 0.424675-0.182189 0.129642-0.50522 0.524169-0.974691 1.407117-0.187789 0.353179-0.375577 0.706358-0.522019 1.194779l-1.80639 4.249348-4.108506-2.071275c-1.589306-0.845049-2.960674-1.460961-3.978864-1.889085-1.283074-0.568965-2.083326-0.767953-2.395157-0.8205-0.535368-0.058146-0.8472-0.110693-0.935495-0.15764-0.046947 0.088295-0.229136 0.217937-0.552166 0.612464-0.0056 0.223537 0.035748 0.358779 0.118443 0.629262 0.041348 0.135242 0.248086 0.811451 0.843751 2.034228 0.642612 1.134482 2.063079 3.362098 4.879462 7.01148l18.853731 9.911449z" fill="#333333" p-id="1793"></path><path d="M857.045074 907.554303c17.394068 9.24859 48.687497-0.614538 61.504071-24.719007 12.816574-24.104469-0.573636-39.605188-21.411199-50.684717S855.961994 818.637955 843.14542 842.742424s-3.494414 55.563289 13.899654 64.811879z" fill="#EF3A35" p-id="1794"></path><path d="M872.154677 915.135194c-6.352921 0.019802-12.225172-1.290417-17.169678-3.919458-9.535834-5.070293-17.132187-16.13128-20.419748-29.544778-3.317709-13.995814-1.601319-28.939174 4.783495-40.947261 6.619549-12.449561 15.787149-19.467047 27.31501-20.69928 9.375191-1.017744 19.908114 1.751286 32.44597 8.417782 27.45967 14.600566 35.260165 33.58483 23.147799 56.364877-6.384813 12.008087-17.813627 21.78726-31.271922 26.863115-6.320622 2.302116-12.748488 3.527896-18.830926 3.465003zM870.52718 828.307771c-1.029389 0.018949-1.970482 0.084846-2.911576 0.150743C858.957971 829.404762 852.247124 834.783844 846.942095 844.761152c-5.44587 10.242192-6.882728 22.955785-3.961696 34.92857 2.672946 11.161333 8.666643 20.124346 16.083403 24.067906 7.41676 3.943561 18.199067 3.900508 28.946924-0.124857 11.559309-4.273451 21.342821-12.662306 26.741744-22.816203 9.858903-18.541899 3.853154-32.381371-19.633252-44.869315-9.624129-5.11724-17.615454-7.554191-24.592038-7.639482z" fill="#333333" p-id="1795"></path><path d="M890.518397 844.60014m-3.531791-1.877886a4 4 0 1 0 7.063581 3.755772 4 4 0 1 0-7.063581-3.755772Z" fill="#333333" p-id="1796"></path><path d="M863.552302 838.869545m-3.531791-1.877886a4 4 0 1 0 7.063581 3.755772 4 4 0 1 0-7.063581-3.755772Z" fill="#333333" p-id="1797"></path><path d="M909.57067 862.658403m-3.531791-1.877886a4 4 0 1 0 7.063581 3.755773 4 4 0 1 0-7.063581-3.755773Z" fill="#333333" p-id="1798"></path><path d="M892.32345 867.191992m-3.53179-1.877886a4 4 0 1 0 7.063581 3.755772 4 4 0 1 0-7.063581-3.755772Z" fill="#333333" p-id="1799"></path><path d="M874.478861 859.855738m-3.531791-1.877886a4 4 0 1 0 7.063581 3.755773 4 4 0 1 0-7.063581-3.755773Z" fill="#333333" p-id="1800"></path><path d="M863.05431 896.252574m-3.53179-1.877886a4 4 0 1 0 7.063581 3.755772 4 4 0 1 0-7.063581-3.755772Z" fill="#333333" p-id="1801"></path><path d="M859.53461 876.033481m-3.531791-1.877886a4 4 0 1 0 7.063581 3.755772 4 4 0 1 0-7.063581-3.755772Z" fill="#333333" p-id="1802"></path><path d="M881.317568 890.447111m-3.53179-1.877886a4 4 0 1 0 7.063581 3.755772 4 4 0 1 0-7.063581-3.755772Z" fill="#333333" p-id="1803"></path><path d="M900.87725 886.463538m-3.53179-1.877886a4 4 0 1 0 7.06358 3.755773 4 4 0 1 0-7.06358-3.755773Z" fill="#333333" p-id="1804"></path><path d="M851.292642 856.814481m-3.531791-1.877886a4 4 0 1 0 7.063581 3.755773 4 4 0 1 0-7.063581-3.755773Z" fill="#333333" p-id="1805"></path><path d="M938 295.2c-9.4 6.8-22.5 4.6-29.3-4.8-2.7-3.7-4.1-8.3-3.9-12.9-9.3-6.9-11.4-20-4.5-29.3 2.7-3.7 6.6-6.4 11-7.7 3.6-11 15.5-17 26.5-13.3 4.4 1.4 8.2 4.3 10.8 8.1 11.6 0.1 20.9 9.5 20.9 21.1 0 4.6-1.6 9.1-4.4 12.7 3.5 11-2.6 22.8-13.6 26.4-4.5 1.4-9.2 1.3-13.5-0.3z" fill="#FC5353" p-id="1806"></path><path d="M925.8 305.6c-1.5 0-3-0.1-4.5-0.4-7.2-1.2-13.5-5.1-17.8-11-2.9-4-4.6-8.7-5-13.5-4.5-4.2-7.4-9.7-8.4-15.8-1.1-7.2 0.7-14.5 5-20.4 2.9-3.9 6.8-7.1 11.3-9 5.8-12.4 20.1-18.8 33.4-14.4 4.6 1.5 8.8 4.3 12 8 6.1 0.7 11.7 3.5 16.1 7.9 5.1 5.2 8 12.1 7.9 19.4 0 4.9-1.4 9.7-3.9 13.9 2.6 13.4-5.2 27-18.5 31.3-4.7 1.5-9.7 1.7-14.4 0.6-4.1 2.2-8.6 3.4-13.2 3.4z m5.4-73.1c-6.1 0-11.8 3.9-13.9 10l-1.1 3.2-3.2 0.9c-3.1 0.9-5.8 2.8-7.7 5.4-2.3 3.1-3.2 7-2.7 10.8 0.6 3.8 2.6 7.2 5.8 9.5l2.7 2-0.1 3.4c-0.1 3.2 0.9 6.4 2.7 9 2.3 3.2 5.6 5.2 9.5 5.9 3.8 0.6 7.7-0.3 10.9-2.6l2.7-2 3.2 1.1c3 1.1 6.3 1.1 9.4 0.2 7.7-2.4 11.9-10.7 9.4-18.3l-1-3.2 2.1-2.7c2-2.5 3-5.7 3-8.9 0-3.9-1.5-7.6-4.2-10.3s-6.4-4.3-10.3-4.3H945l-1.9-2.8c-1.8-2.6-4.4-4.6-7.5-5.6-1.3-0.5-2.9-0.7-4.4-0.7z" fill="#333333" p-id="1807"></path></svg>