<?xml version="1.0" standalone="no"?>
<!DOCTYPE svg PUBLIC "-//W3C//DTD SVG 20010904//EN"
 "http://www.w3.org/TR/2001/REC-SVG-20010904/DTD/svg10.dtd">
<svg version="1.0" xmlns="http://www.w3.org/2000/svg"
 width="800.000000pt" height="800.000000pt" viewBox="0 0 800.000000 800.000000"
 preserveAspectRatio="xMidYMid meet">

<g transform="translate(0.000000,800.000000) scale(0.100000,-0.100000)"
fill="#000000" stroke="none">
<path d="M2247 6758 c-219 -309 -320 -572 -333 -873 -14 -308 96 -643 289
-879 l24 -30 75 65 c41 35 87 73 103 84 l28 21 -50 62 c-62 78 -127 208 -154
309 -32 121 -36 284 -10 410 22 107 68 243 81 243 17 0 209 -212 273 -301 112
-156 217 -394 217 -494 0 -12 2 -24 5 -27 3 -3 65 18 138 45 128 48 339 107
385 107 30 0 28 11 -9 46 -83 78 -348 409 -949 1187 l-68 88 -45 -63z"/>
<path d="M5520 6659 c-255 -330 -314 -407 -474 -609 -192 -243 -321 -402 -413
-506 l-63 -71 62 -13 c91 -18 289 -76 392 -116 49 -19 90 -33 91 -32 1 2 13
52 28 113 30 122 81 237 160 358 60 92 178 235 260 316 l56 54 16 -39 c31 -74
65 -206 76 -297 29 -235 -46 -479 -206 -673 l-26 -32 63 -51 c35 -28 80 -65
100 -82 37 -32 38 -32 59 -13 31 28 121 168 167 259 91 183 135 369 135 575 1
221 -47 418 -153 635 -43 88 -153 264 -208 334 l-19 24 -103 -134z"/>
<path d="M3541 5409 c-120 -11 -313 -44 -411 -70 -244 -65 -520 -190 -712
-321 -82 -56 -218 -179 -218 -198 0 -4 12 -11 28 -15 88 -21 293 -137 438
-246 563 -425 894 -1118 921 -1927 l6 -173 151 -123 c164 -133 183 -146 218
-146 39 0 82 30 226 158 l139 122 -7 48 c-27 170 -19 399 20 602 142 740 705
1463 1263 1625 64 19 65 12 -8 99 -50 59 -158 149 -250 208 -261 169 -624 287
-1056 344 -145 19 -603 27 -748 13z m542 -2930 c-37 -45 -77 -93 -89 -107
l-21 -25 -109 106 -109 106 198 1 198 0 -68 -81z"/>
<path d="M5145 3849 c-279 -41 -456 -231 -490 -527 l-7 -64 68 7 c229 22 379
113 458 277 37 78 66 198 66 273 0 50 5 48 -95 34z"/>
<path d="M2703 3783 c26 -280 172 -458 415 -508 40 -8 96 -15 123 -15 49 0 49
0 49 33 -1 63 -31 173 -70 256 -51 107 -129 186 -232 235 -72 34 -197 66 -259
66 l-32 0 6 -67z"/>
</g>
</svg>
